<?xml version="1.0" encoding="UTF-8" standalone="no"?>
<!-- Created with Inkscape (http://www.inkscape.org/) -->

<svg
   version="1.1"
   id="svg2"
   width="310.97067"
   height="420.04132"
   viewBox="0 0 310.97067 420.04132"
   sodipodi:docname="YWIES_Logo_PRI_Short_RGB.ai"
   xmlns:inkscape="http://www.inkscape.org/namespaces/inkscape"
   xmlns:sodipodi="http://sodipodi.sourceforge.net/DTD/sodipodi-0.dtd"
   xmlns="http://www.w3.org/2000/svg"
   xmlns:svg="http://www.w3.org/2000/svg">
  <defs
     id="defs6">
    <clipPath
       clipPathUnits="userSpaceOnUse"
       id="clipPath16">
      <path
         d="M 0,315.031 H 233.228 V 0 H 0 Z"
         id="path14" />
    </clipPath>
  </defs>
  <sodipodi:namedview
     id="namedview4"
     pagecolor="#ffffff"
     bordercolor="#000000"
     borderopacity="0.25"
     inkscape:showpageshadow="2"
     inkscape:pageopacity="0.0"
     inkscape:pagecheckerboard="0"
     inkscape:deskcolor="#d1d1d1" />
  <g
     id="g8"
     inkscape:groupmode="layer"
     inkscape:label="YWIES_Logo_PRI_Short_RGB"
     transform="matrix(1.3333333,0,0,-1.3333333,0,420.04133)">
    <g
       id="g10">
      <g
         id="g12"
         clip-path="url(#clipPath16)">
        <g
           id="g18"
           transform="translate(60.9128,123.0762)">
          <path
             d="M 0,0 C 4.489,-4.066 9.427,-7.649 14.723,-10.666 35.408,17.993 76.414,17.929 97.145,-10.627 102.416,-7.618 107.328,-4.049 111.8,0 84.491,32.322 27.303,32.325 0,0"
             style="fill:#0032a0;fill-opacity:1;fill-rule:nonzero;stroke:none"
             id="path20" />
        </g>
        <g
           id="g22"
           transform="translate(196.1248,210.5874)">
          <path
             d="m 0,0 c -2.145,6.63 -5.102,12.902 -8.754,18.686 -42.476,-24.998 -98.643,-25.001 -141.117,0 -3.651,-5.784 -6.608,-12.052 -8.753,-18.682 C -108.223,-16.876 -50.406,-16.864 0,0"
             style="fill:#0032a0;fill-opacity:1;fill-rule:nonzero;stroke:none"
             id="path24" />
        </g>
        <g
           id="g26"
           transform="translate(106.0065,102.2884)">
          <path
             d="m 0,0 c 0,-0.018 -0.004,-0.03 -0.009,-0.048 3.54,-0.457 7.148,-0.694 10.813,-0.694 3.665,0 7.277,0.237 10.817,0.694 C 21.617,-0.03 21.617,-0.017 21.612,0 21.612,14.965 0,14.965 0,0"
             style="fill:#0032a0;fill-opacity:1;fill-rule:nonzero;stroke:none"
             id="path28" />
        </g>
        <g
           id="g30"
           transform="translate(83.3107,108.5515)">
          <path
             d="m 0,0 c 4.545,-1.999 9.306,-3.6 14.231,-4.765 6.583,17.96 31.963,17.952 38.537,0 4.956,1.169 9.738,2.784 14.309,4.8 C 54.666,28.571 12.323,28.613 0,0"
             style="fill:#0032a0;fill-opacity:1;fill-rule:nonzero;stroke:none"
             id="path32" />
        </g>
        <g
           id="g34"
           transform="translate(198.3477,202.2653)">
          <path
             d="m 0,0 c -53.608,-10.775 -109.46,-10.767 -163.07,-0.004 -1.187,-5.603 -1.813,-11.413 -1.813,-17.37 0,-0.91 0.013,-1.821 0.043,-2.723 55.517,1.422 111.094,1.422 166.61,0 0.03,0.902 0.043,1.813 0.043,2.723 C 1.813,-11.417 1.187,-5.603 0,0"
             style="fill:#0032a0;fill-opacity:1;fill-rule:nonzero;stroke:none"
             id="path36" />
        </g>
        <g
           id="g38"
           transform="translate(182.3899,236.3436)">
          <path
             d="M 0,0 C -4.161,5.296 -8.948,10.074 -14.253,14.223 -39.848,-15.889 -91.304,-15.884 -116.906,14.218 -122.211,10.07 -126.998,5.292 -131.155,-0.004 -95.09,-29.325 -36.061,-29.33 0,0"
             style="fill:#0032a0;fill-opacity:1;fill-rule:nonzero;stroke:none"
             id="path40" />
        </g>
        <g
           id="g42"
           transform="translate(34.2243,173.5827)">
          <path
             d="m 0,0 c 0.958,-7.04 2.788,-13.804 5.387,-20.171 47.234,19.513 107.16,19.514 154.403,0 2.598,6.367 4.428,13.131 5.387,20.171 C 110.617,7.91 54.558,7.911 0,0"
             style="fill:#0032a0;fill-opacity:1;fill-rule:nonzero;stroke:none"
             id="path44" />
        </g>
        <g
           id="g46"
           transform="translate(43.2845,145.6123)">
          <path
             d="m 0,0 c 3.173,-5.926 7.044,-11.426 11.508,-16.389 34.586,29.226 89.458,29.227 124.041,-0.005 4.463,4.964 8.33,10.463 11.507,16.39 C 107.981,24.536 39.103,24.544 0,0"
             style="fill:#0032a0;fill-opacity:1;fill-rule:nonzero;stroke:none"
             id="path48" />
        </g>
        <g
           id="g50"
           transform="translate(131.3249,240.6745)">
          <path
             d="m 0,0 -0.047,-7.001 c -9.41,-2.4 -19.567,-2.396 -28.977,0.013 V 0 C -14.473,-6.561 -14.473,-6.591 0,0"
             style="fill:#ff8200;fill-opacity:1;fill-rule:nonzero;stroke:none"
             id="path52" />
        </g>
        <g
           id="g54"
           transform="translate(164.6051,253.0947)">
          <path
             d="M 0,0 -0.043,-0.022 -7.36,-3.35 -45.897,-20.892 c -1.195,-0.543 -2.594,-0.543 -3.789,0 L -88.223,-3.35 -95.54,-0.022 -95.583,0 l 1.925,2.706 1.282,-0.617 0.583,-0.28 42.02,-20.236 c 1.243,-0.6 2.72,-0.6 3.963,0 l 42.02,20.236 0.583,0.28 1.282,0.617 z"
             style="fill:#ff8200;fill-opacity:1;fill-rule:nonzero;stroke:none"
             id="path56" />
        </g>
        <g
           id="g58"
           transform="translate(161.238,257.8293)">
          <path
             d="m 0,0 -40.674,-19.622 c -2.37,-1.143 -5.132,-1.143 -7.502,0 L -88.849,0 l 1.923,2.704 38.567,-19.747 c 2.47,-1.265 5.398,-1.265 7.869,0 L -1.923,2.704 Z"
             style="fill:#ff8200;fill-opacity:1;fill-rule:nonzero;stroke:none"
             id="path60" />
        </g>
        <g
           id="g62"
           transform="translate(115.5168,260.8759)">
          <path
             d="m 0,0 v -16.898 c 0,-0.93 -1.082,-1.51 -1.945,-1.043 L -39.344,2.272 -27.34,19.153 -4.367,6.99 C -1.667,5.561 0,2.892 0,0"
             style="fill:#ff8200;fill-opacity:1;fill-rule:nonzero;stroke:none"
             id="path64" />
        </g>
        <g
           id="g66"
           transform="translate(157.4551,263.1474)">
          <path
             d="m 0,0 -37.404,-20.213 c -0.863,-0.467 -1.944,0.114 -1.944,1.043 v 16.898 c 0,2.892 1.667,5.562 4.367,6.991 l 22.977,12.163 z"
             style="fill:#ff8200;fill-opacity:1;fill-rule:nonzero;stroke:none"
             id="path68" />
        </g>
        <g
           id="g70"
           transform="translate(111.8498,72.3062)">
          <path
             d="m 0,0 -5.76,-28.69 -7.012,27.622 h -8.138 l -6.951,-27.622 -5.781,28.5 -1.081,-1.649 -5.157,-7.888 -0.716,-1.095 7.211,-28.801 h 9.445 l 6.892,25.902 6.774,-25.902 h 9.445 L 9.268,0 Z M -43.305,0 -41.71,-6.375 -37.542,0 Z"
             style="fill:#0032a0;fill-opacity:1;fill-rule:nonzero;stroke:none"
             id="path72" />
        </g>
        <path
           d="m 124.564,32.683 h 8.971 v 39.623 h -8.971 z"
           style="fill:#0032a0;fill-opacity:1;fill-rule:nonzero;stroke:none"
           id="path74" />
        <g
           id="g76"
           transform="translate(149.0394,40.586)">
          <path
             d="m 0,0 v 8.554 h 14.079 v 7.603 H 0 v 7.722 H 18.119 V 31.72 H -8.971 V -7.903 H 19.426 V 0 Z"
             style="fill:#0032a0;fill-opacity:1;fill-rule:nonzero;stroke:none"
             id="path78" />
        </g>
        <g
           id="g80"
           transform="translate(200.0659,50.6829)">
          <path
             d="m 0,0 c -1.148,1.705 -2.623,3.03 -4.426,3.982 -1.802,0.949 -3.672,1.662 -5.613,2.139 -2.494,0.554 -4.456,1.246 -5.879,2.078 -1.426,0.833 -2.14,1.919 -2.14,3.266 0,1.032 0.545,1.913 1.635,2.644 1.086,0.732 2.265,1.099 3.532,1.099 1.94,0 3.623,-0.425 5.05,-1.276 1.426,-0.851 2.574,-1.613 3.446,-2.286 l 5.169,5.702 c -0.437,0.514 -1.209,1.187 -2.317,2.02 -1.111,0.832 -2.586,1.594 -4.425,2.286 -1.843,0.692 -4.111,1.041 -6.804,1.041 -3.247,0 -5.941,-0.567 -8.077,-1.693 -2.139,-1.129 -3.743,-2.614 -4.814,-4.456 -1.068,-1.843 -1.604,-3.872 -1.604,-6.091 0,-3.008 0.992,-5.463 2.972,-7.364 1.98,-1.9 4.474,-3.229 7.483,-3.982 3.091,-0.753 5.347,-1.542 6.773,-2.375 1.426,-0.832 2.14,-1.98 2.14,-3.446 0,-0.912 -0.288,-1.692 -0.864,-2.347 -0.572,-0.652 -1.297,-1.148 -2.166,-1.485 -0.873,-0.336 -1.763,-0.505 -2.672,-0.505 -2.299,0 -4.31,0.536 -6.033,1.604 -1.72,1.071 -3.097,2.158 -4.126,3.269 l -5.763,-6.238 c 1.029,-1.111 2.296,-2.17 3.802,-3.18 1.505,-1.01 3.268,-1.83 5.285,-2.464 2.02,-0.633 4.337,-0.951 6.951,-0.951 2.852,0 5.426,0.535 7.725,1.603 2.295,1.072 4.116,2.535 5.463,4.398 1.347,1.861 2.02,3.979 2.02,6.354 C 1.723,-3.921 1.151,-1.702 0,0"
             style="fill:#0032a0;fill-opacity:1;fill-rule:nonzero;stroke:none"
             id="path82" />
        </g>
        <g
           id="g84"
           transform="translate(74.3083,72.3062)">
          <path
             d="m 0,0 -4.169,-6.375 -0.985,-1.509 -11.303,-17.287 v -14.452 h -9.558 v 14.452 L -42.472,0 h 12.337 l 8.897,-14.207 1.938,3.094 L -12.337,0 Z"
             style="fill:#0032a0;fill-opacity:1;fill-rule:nonzero;stroke:none"
             id="path86" />
        </g>
      </g>
    </g>
  </g>
</svg>
